HIERARCHY
ROOT Hips
{
	OFFSET -3.958830 18.904000 13.208200
	CHANNELS 6 Xposition Yposition Zposition Zrotation Yrotation Xrotation 
	JOINT LHipJoint
	{
		OFFSET 0.000000 0.000000 0.000000
		CHANNELS 3 Zrotation Yrotation Xrotation
		JOINT LeftUpLeg
		{
			OFFSET 1.800000 -1.400000 0.085000
			CHANNELS 3 Zrotation Yrotation Xrotation
			JOINT LeftLeg
			{
				OFFSET 2.215000 -6.000000 0.000000
				CHANNELS 3 Zrotation Yrotation Xrotation
				JOINT LeftFoot
				{
					OFFSET 2.500000 -6.900000 0.000000
					CHANNELS 3 Zrotation Yrotation Xrotation
					JOINT LeftToeBase
					{
						OFFSET 0.200000 -0.500000 1.950000
						CHANNELS 3 Zrotation Yrotation Xrotation
						End Site
						{
							OFFSET 0.000000 0.000000 0.000000
						}
					}
				}
			}
		}
	}
	JOINT RHipJoint
	{
		OFFSET 0.000000 0.000000 0.000000
		CHANNELS 3 Zrotation Yrotation Xrotation
		JOINT RightUpLeg
		{
			OFFSET -1.800000 -1.400000 0.085000
			CHANNELS 3 Zrotation Yrotation Xrotation
			JOINT RightLeg
			{
				OFFSET -2.215000 -6.000000 0.000000
				CHANNELS 3 Zrotation Yrotation Xrotation
				JOINT RightFoot
				{
					OFFSET -2.500000 -6.900000 0.000000
					CHANNELS 3 Zrotation Yrotation Xrotation
					JOINT RightToeBase
					{
						OFFSET -0.200000 -0.500000 1.950000
						CHANNELS 3 Zrotation Yrotation Xrotation
						End Site
						{
							OFFSET 0.000000 0.000000 0.000000
						}
					}
				}
			}
		}
	}
	JOINT LowerBack
	{
		OFFSET 0.000000 0.000000 0.000000
		CHANNELS 3 Zrotation Yrotation Xrotation
		JOINT Spine
		{
			OFFSET -0.087000 1.940000 -0.288900
			CHANNELS 3 Zrotation Yrotation Xrotation
			JOINT Spine1
			{
				OFFSET 0.000000 1.950000 0.060000
				CHANNELS 3 Zrotation Yrotation Xrotation
				JOINT Neck
				{
					OFFSET 0.000000 0.000000 0.000000
					CHANNELS 3 Zrotation Yrotation Xrotation
					JOINT Neck1
					{
						OFFSET 0.000000 1.600000 0.340000
						CHANNELS 3 Zrotation Yrotation Xrotation
						JOINT Head
						{
							OFFSET 0.000000 1.667000 -0.240000
							CHANNELS 3 Zrotation Yrotation Xrotation
							End Site
							{
								OFFSET 0.000000 0.000000 0.000000
							}
						}
					}
				}
				JOINT LeftShoulder
				{
					OFFSET 0.000000 0.000000 0.000000
					CHANNELS 3 Zrotation Yrotation Xrotation
					JOINT LeftArm
					{
						OFFSET 2.700000 1.550000 -0.730000
						CHANNELS 3 Zrotation Yrotation Xrotation
						JOINT LeftForeArm
						{
							OFFSET 5.450000 0.000000 0.000000
							CHANNELS 3 Zrotation Yrotation Xrotation
							JOINT LeftHand
							{
								OFFSET 3.450000 0.000000 0.000000
								CHANNELS 3 Zrotation Yrotation Xrotation
								JOINT LeftHandIndex1
								{
									OFFSET 0.750000 0.000000 0.000000
									CHANNELS 3 Zrotation Yrotation Xrotation
									End Site
									{
										OFFSET 0.000000 0.000000 0.000000
									}
								}
							}
						}
					}
				}
				JOINT RightShoulder
				{
					OFFSET 0.000000 0.000000 0.000000
					CHANNELS 3 Zrotation Yrotation Xrotation
					JOINT RightArm
					{
						OFFSET -2.700000 1.550000 -0.730000
						CHANNELS 3 Zrotation Yrotation Xrotation
						JOINT RightForeArm
						{
							OFFSET -5.450000 0.000000 0.000000
							CHANNELS 3 Zrotation Yrotation Xrotation
							JOINT RightHand
							{
								OFFSET -3.450000 0.000000 0.000000
								CHANNELS 3 Zrotation Yrotation Xrotation
								JOINT RightHandIndex1
								{
									OFFSET -0.750000 0.000000 0.000000
									CHANNELS 3 Zrotation Yrotation Xrotation
									End Site
									{
										OFFSET 0.000000 0.000000 0.000000
									}
								}
							}
						}
					}
				}
			}
		}
	}
}
MOTION
Frames: 13
Frame Time: 0.016667
0.209510 17.260650 -1.535330 -4.248088 0.507604 9.795574 -15.351025 12.570328 2.917083 -1.403122 -0.959942 -8.498559 -7.664305 3.482549 0.834624 -0.705671 4.538504 3.523159 0.088930 -0.194660 -0.245070 18.221628 -10.257688 2.684511 -23.193832 0.896301 -18.067545 0.518674 -3.333960 -0.195330 -0.333012 -4.107884 2.721115 0.123130 1.310550 1.064650 -3.317637 -1.421092 -6.817987 2.107106 0.628518 0.158029 4.500805 -0.396841 4.557318 1.009734 1.460179 -7.373817 2.587888 6.507072 18.471035 -4.596610 6.379800 -5.785680 -12.720236 -2.754755 2.455045 -54.291990 -7.100542 0.931449 -29.641714 -19.927951 2.421951 -4.600691 3.144371 0.432670 0.919800 -0.051780 0.582410 11.705381 2.103581 2.581771 55.231288 6.625146 -3.297338 28.519475 28.200698 4.018564 1.844019 -1.757054 -0.375040 0.328240 0.247000 0.200990 
0.203800 17.260780 -1.537120 -4.268918 0.438239 9.691235 -15.347963 12.580860 2.910496 -1.397385 -0.949584 -8.480813 -7.539055 3.490450 0.996663 -0.706021 4.531538 3.526406 0.086700 -0.194850 -0.247760 18.222954 -10.275586 2.678686 -23.144076 0.882237 -18.213478 0.424658 -3.327254 -0.051117 -0.326239 -4.090058 2.728033 0.123820 1.313280 1.061510 -3.323217 -1.405241 -6.810369 2.095508 0.638049 0.176079 4.397742 -0.379000 4.591227 1.030689 1.474349 -7.377416 2.616199 6.521280 18.491334 -4.536410 6.370460 -5.699350 -12.690782 -2.786099 2.468241 -54.130150 -7.084600 0.919797 -29.725546 -20.001691 2.458609 -4.602394 3.144495 0.427720 0.921480 -0.055140 0.582120 11.629627 2.136085 2.573634 55.282000 6.763409 -3.199066 28.614091 28.072700 4.014297 1.845730 -1.758073 -0.375510 0.330650 0.247850 0.202480 
0.197530 17.260560 -1.539510 -4.284390 0.366217 9.629085 -15.346709 12.582713 2.904124 -1.363666 -0.946306 -8.462873 -7.436744 3.480662 1.032609 -0.706447 4.532986 3.527243 0.083600 -0.197240 -0.253800 18.224653 -10.281094 2.678023 -23.147539 0.880228 -18.356476 0.389020 -3.323496 0.019508 -0.319856 -4.087182 2.728205 0.124870 1.320770 1.065900 -3.327008 -1.393239 -6.802928 2.046679 0.657401 0.142234 4.335344 -0.360926 4.649734 1.055884 1.513882 -7.371179 2.687483 6.524454 18.445019 -4.554960 6.371940 -5.498410 -12.690314 -2.811447 2.466351 -53.984508 -7.114267 0.943461 -29.724826 -20.032642 2.472947 -4.612814 3.150934 0.418110 0.930340 -0.061580 0.583040 11.578647 2.139859 2.561256 55.292193 6.875174 -3.113678 28.749764 28.119309 4.050800 1.842122 -1.766941 -0.374070 0.328450 0.251530 0.204890 
0.193960 17.261010 -1.541440 -4.300502 0.415108 9.577347 -15.346575 12.583988 2.899717 -1.314293 -0.945137 -8.456339 -7.401253 3.478530 1.052967 -0.706267 4.539009 3.527021 0.081630 -0.199700 -0.256450 18.224839 -10.284256 2.676256 -23.182129 0.874044 -18.391968 0.390307 -3.331015 0.072462 -0.317359 -4.094500 2.723379 0.124930 1.327350 1.071520 -3.327590 -1.388559 -6.797540 2.015731 0.648463 0.101166 4.273748 -0.372570 4.693692 1.102280 1.564199 -7.367751 2.774168 6.472327 18.414676 -4.621230 6.355160 -5.323750 -12.691949 -2.822403 2.444198 -53.903870 -7.216044 1.016884 -29.661383 -20.002144 2.471071 -4.621346 3.155946 0.411500 0.937770 -0.065560 0.584280 11.486826 2.109946 2.571131 55.301198 6.913076 -3.077848 28.913147 28.353668 4.129584 1.838723 -1.777035 -0.373030 0.325640 0.253250 0.207300 
0.191340 17.260850 -1.541700 -4.357208 0.501246 9.536915 -15.345395 12.585126 2.896051 -1.223233 -0.941752 -8.437610 -7.396268 3.476413 1.031382 -0.707262 4.549048 3.524764 0.082100 -0.199590 -0.258450 18.226060 -10.285100 2.674273 -23.208676 0.867446 -18.396631 0.454790 -3.345964 0.126969 -0.316271 -4.103117 2.718317 0.127020 1.332960 1.076250 -3.331500 -1.388902 -6.792831 2.092293 0.592329 0.060934 4.180225 -0.423920 4.689117 1.133000 1.565898 -7.323362 2.775808 6.477058 18.371233 -4.646500 6.334800 -5.225620 -12.755006 -2.761514 2.397895 -53.849251 -7.277386 1.084474 -29.536151 -19.920164 2.444104 -4.628913 3.158819 0.407030 0.943500 -0.068700 0.586090 11.487237 2.026304 2.528807 55.215979 6.969613 -2.980989 29.065143 28.314660 4.164494 1.836494 -1.783380 -0.372440 0.324590 0.254790 0.209170 
0.187970 17.261120 -1.541450 -4.403474 0.583079 9.495174 -15.346241 12.589914 2.894105 -1.140600 -0.942318 -8.407583 -7.343595 3.460348 0.974551 -0.708828 4.547103 3.522216 0.092710 -0.188160 -0.249480 18.225691 -10.284403 2.668430 -23.228458 0.854000 -18.406689 0.501269 -3.355528 0.211607 -0.317874 -4.102771 2.713319 0.134190 1.325930 1.077140 -3.330049 -1.401118 -6.786298 2.110582 0.546034 0.027239 4.167224 -0.464992 4.648293 1.124535 1.553472 -7.229496 2.748689 6.475321 18.354571 -4.646070 6.313400 -5.290750 -12.845039 -2.625604 2.316428 -53.783996 -7.382253 1.197588 -29.504895 -19.754974 2.424653 -4.627319 3.164614 0.405270 0.940600 -0.066550 0.585790 11.599304 1.882365 2.425961 55.027490 7.034832 -2.824866 29.157371 27.930680 4.126112 1.840051 -1.787582 -0.368210 0.320730 0.249640 0.207740 
0.184390 17.262530 -1.540810 -4.424328 0.619415 9.449876 -15.349031 12.597087 2.892654 -1.076162 -0.933314 -8.353141 -7.295181 3.449234 0.923156 -0.711399 4.550527 3.518525 0.096290 -0.184000 -0.247670 18.223536 -10.280533 2.663475 -23.275380 0.839863 -18.423230 0.530301 -3.366256 0.282646 -0.317434 -4.103549 2.709618 0.138100 1.323130 1.076960 -3.322938 -1.421895 -6.781444 2.058042 0.520846 0.004476 4.183311 -0.484500 4.598624 1.110071 1.550204 -7.144908 2.732272 6.497325 18.375715 -4.621990 6.306890 -5.324140 -12.946738 -2.502230 2.235600 -53.666247 -7.485302 1.325087 -29.557549 -19.564333 2.415783 -4.628383 3.167213 0.405000 0.939410 -0.066700 0.584710 11.738777 1.747501 2.344302 54.844706 7.046282 -2.722556 29.276834 27.716845 4.130321 1.841026 -1.788212 -0.367590 0.319480 0.249760 0.206520 
0.177540 17.264720 -1.539650 -4.415866 0.565641 9.388789 -15.353326 12.604083 2.893027 -1.006191 -0.918098 -8.280298 -7.335374 3.456000 0.889041 -0.708747 4.562718 3.513856 0.098260 -0.183030 -0.250030 18.219810 -10.273421 2.660494 -23.317846 0.829762 -18.437601 0.562961 -3.376239 0.320790 -0.318652 -4.104636 2.707516 0.137940 1.323450 1.079140 -3.310713 -1.447109 -6.779613 1.887383 0.538228 -0.005227 4.272667 -0.465895 4.563330 1.054041 1.549593 -7.099050 2.718728 6.512214 18.449615 -4.526720 6.268380 -5.328140 -12.961240 -2.430897 2.192310 -53.553877 -7.571828 1.435039 -29.713176 -19.398885 2.424951 -4.626134 3.172284 0.407260 0.937660 -0.065930 0.586900 11.875432 1.679345 2.303871 54.765261 7.012127 -2.703388 29.261979 27.621763 4.121075 1.841880 -1.787681 -0.366270 0.317810 0.250060 0.207990 
0.173180 17.266910 -1.539060 -4.532454 0.512052 9.333192 -15.350693 12.611554 2.890797 -0.825389 -0.915594 -8.255891 -7.364933 3.465293 0.892403 -0.710301 4.571394 3.509768 0.102270 -0.178980 -0.248340 18.220436 -10.281690 2.654759 -23.236400 0.831061 -18.455090 0.590165 -3.382563 0.411432 -0.319472 -4.093089 2.711494 0.140150 1.321390 1.077950 -3.314634 -1.446710 -6.776574 1.992682 0.529906 0.016667 4.218084 -0.470307 4.540625 1.045276 1.520556 -7.065690 2.665933 6.557566 18.480441 -4.444020 6.254540 -5.452820 -12.954315 -2.358491 2.151561 -53.509212 -7.623964 1.505248 -29.815553 -19.301687 2.431569 -4.622349 3.170829 0.412130 0.933830 -0.063240 0.588000 11.885211 1.612178 2.280947 54.804155 7.015969 -2.692553 29.315374 27.689268 4.157603 1.840521 -1.785667 -0.366710 0.320460 0.249150 0.207410 
0.168880 17.268480 -1.538500 -4.631589 0.462213 9.297698 -15.347692 12.622686 2.885375 -0.680877 -0.915989 -8.262322 -7.337558 3.474880 0.977942 -0.718381 4.577217 3.507694 0.106280 -0.174410 -0.250750 18.221178 -10.290259 2.650361 -23.179911 0.830638 -18.478967 0.639107 -3.393478 0.514739 -0.319318 -4.084162 2.716130 0.145130 1.324420 1.075350 -3.319337 -1.451030 -6.771182 2.080401 0.514324 0.035683 4.186417 -0.480229 4.522691 1.004906 1.463441 -7.039827 2.567786 6.626932 18.445902 -4.273700 6.176410 -5.610660 -12.899524 -2.280504 2.112349 -53.542560 -7.677148 1.579859 -29.941260 -19.231441 2.440682 -4.619899 3.167245 0.417950 0.931570 -0.063060 0.591410 11.909047 1.560512 2.268935 54.783833 6.990035 -2.697358 29.535724 27.916130 4.262128 1.834197 -1.784264 -0.370410 0.328710 0.250500 0.207850 
0.166020 17.271680 -1.538640 -4.686364 0.463564 9.254991 -15.349008 12.632928 2.882288 -0.600802 -0.913660 -8.246644 -7.288669 3.475484 1.023817 -0.722286 4.577557 3.505217 0.110690 -0.171310 -0.246900 18.218341 -10.291149 2.649218 -23.203995 0.818240 -18.462996 0.754141 -3.419455 0.592170 -0.323986 -4.079687 2.715220 0.145800 1.319380 1.075170 -3.313027 -1.467292 -6.770593 2.064941 0.519508 0.074106 4.249113 -0.472477 4.484900 0.976363 1.441701 -7.014446 2.523868 6.601934 18.497796 -4.196980 6.104930 -5.862850 -12.909039 -2.238474 2.072642 -53.608606 -7.776002 1.652829 -29.938480 -19.164908 2.430598 -4.615616 3.162419 0.426540 0.924660 -0.057160 0.590490 11.979243 1.531340 2.261794 54.679971 6.927076 -2.708427 29.681764 27.884706 4.301574 1.833030 -1.777423 -0.369690 0.332450 0.251500 0.205590 
0.163510 17.274190 -1.537520 -4.727223 0.463509 9.215097 -15.350327 12.640602 2.880345 -0.518916 -0.906794 -8.226312 -7.295316 3.485188 1.063599 -0.725095 4.579288 3.499296 0.114390 -0.166570 -0.243350 18.215538 -10.291107 2.648550 -23.212979 0.812221 -18.396452 0.821491 -3.435056 0.613661 -0.329858 -4.076661 2.713451 0.147220 1.310290 1.074230 -3.306778 -1.481066 -6.771326 2.045569 0.522368 0.109167 4.299065 -0.467722 4.456747 0.962423 1.420519 -6.997884 2.483111 6.558378 18.552329 -4.185900 6.055700 -6.160060 -12.872997 -2.180604 2.037367 -53.676151 -7.850123 1.718798 -30.050333 -19.129029 2.447799 -4.610141 3.159354 0.434530 0.916490 -0.049480 0.587580 11.973244 1.489612 2.261951 54.630726 6.877322 -2.721761 29.832214 27.922741 4.357281 1.831676 -1.770838 -0.367850 0.334580 0.253010 0.202590 
0.162240 17.276010 -1.536250 -4.770535 0.492239 9.182267 -15.350811 12.647326 2.878621 -0.451564 -0.901421 -8.213229 -7.293935 3.491924 1.101482 -0.727787 4.575634 3.495266 0.122190 -0.155570 -0.237050 18.213751 -10.293346 2.645706 -23.214768 0.804727 -18.326666 0.865395 -3.446341 0.649641 -0.334798 -4.074784 2.712834 0.152510 1.299400 1.071520 -3.303427 -1.491028 -6.770115 2.052062 0.512818 0.125877 4.358287 -0.480137 4.456001 0.941619 1.395220 -6.987504 2.437904 6.506641 18.573134 -4.207740 6.014100 -6.426320 -12.807126 -2.142752 2.012971 -53.799568 -7.945895 1.793741 -30.161692 -19.067400 2.460388 -4.602418 3.157944 0.439910 0.908970 -0.042170 0.586220 11.949560 1.469249 2.262078 54.588250 6.857276 -2.727470 29.933540 27.995372 4.402140 1.830544 -1.768501 -0.365300 0.335380 0.249460 0.200030 
